<svg xmlns="http://www.w3.org/2000/svg" width="1440" height="960" viewBox="0 0 1440 960" role="img" aria-labelledby="title desc">
<title id="title">Resume Builders illustration</title><desc id="desc">Generated Guide Market illustration for Resume Builders.</desc>
<defs><linearGradient id="g" x1="0" y1="0" x2="1" y2="1"><stop stop-color="#f8fafc"/><stop offset="1" stop-color="#ffffff"/></linearGradient><filter id="shadow" x="-20%" y="-20%" width="140%" height="140%"><feDropShadow dx="0" dy="18" stdDeviation="20" flood-color="#0f172a" flood-opacity=".18"/></filter></defs>
<rect width="1440" height="960" fill="url(#g)"/><circle cx="1120" cy="190" r="210" fill="#2563eb" opacity=".12"/><circle cx="250" cy="760" r="260" fill="#0f766e" opacity=".10"/><circle cx="120" cy="120" r="6" fill="#f97316" opacity=".25"/><circle cx="182" cy="162" r="7" fill="#2563eb" opacity=".25"/><circle cx="244" cy="204" r="8" fill="#f97316" opacity=".25"/><circle cx="306" cy="120" r="9" fill="#2563eb" opacity=".25"/><circle cx="368" cy="162" r="6" fill="#f97316" opacity=".25"/><circle cx="430" cy="204" r="7" fill="#2563eb" opacity=".25"/><circle cx="492" cy="120" r="8" fill="#f97316" opacity=".25"/><circle cx="554" cy="162" r="9" fill="#2563eb" opacity=".25"/><circle cx="616" cy="204" r="6" fill="#f97316" opacity=".25"/><circle cx="678" cy="120" r="7" fill="#2563eb" opacity=".25"/><circle cx="740" cy="162" r="8" fill="#f97316" opacity=".25"/><circle cx="802" cy="204" r="9" fill="#2563eb" opacity=".25"/><circle cx="864" cy="120" r="6" fill="#f97316" opacity=".25"/><circle cx="926" cy="162" r="7" fill="#2563eb" opacity=".25"/><circle cx="988" cy="204" r="8" fill="#f97316" opacity=".25"/><circle cx="1050" cy="120" r="9" fill="#2563eb" opacity=".25"/><circle cx="1112" cy="162" r="6" fill="#f97316" opacity=".25"/><circle cx="1174" cy="204" r="7" fill="#2563eb" opacity=".25"/>
<g filter="url(#shadow)"><rect x="130" y="150" width="1180" height="660" rx="54" fill="#fff" opacity=".86"/><rect x="170" y="190" width="1100" height="580" rx="38" fill="#f8fafc" opacity=".9"/></g>
<g filter="url(#shadow)"><path d="M300 190 h480 v520 H300 z" fill="#0f766e" opacity=".95"/><path d="M830 270 h190 v360 H830 z" fill="#2563eb" opacity=".92"/></g>
<g><rect x="820" y="590" width="28" height="80" rx="10" fill="#0f766e" opacity=".9"/><rect x="862" y="545" width="28" height="125" rx="10" fill="#2563eb" opacity=".9"/><rect x="904" y="500" width="28" height="170" rx="10" fill="#f97316" opacity=".9"/><rect x="946" y="455" width="28" height="215" rx="10" fill="#0f766e" opacity=".9"/><rect x="988" y="410" width="28" height="260" rx="10" fill="#2563eb" opacity=".9"/></g>
<g fill="none" stroke="#111827" stroke-width="10" stroke-linecap="round" opacity=".18"><path d="M235 705 C380 640 480 720 620 650 S850 510 1040 540"/><path d="M310 255 H575 M310 315 H650 M310 375 H515"/></g>
<g filter="url(#shadow)"><rect x="210" y="620" width="450" height="110" rx="28" fill="#fff"/><text x="245" y="668" font-family="Inter, Arial, sans-serif" font-size="34" font-weight="800" fill="#111827">Resume</text><text x="245" y="707" font-family="Inter, Arial, sans-serif" font-size="24" fill="#111827" opacity=".72">ATS-friendly CV and bullets</text></g>
<g><circle cx="1020" cy="260" r="54" fill="#f97316"/><path d="M998 260 h44 M1020 238 v44" stroke="#fff" stroke-width="12" stroke-linecap="round"/></g>
<text x="210" y="125" font-family="Inter, Arial, sans-serif" font-size="54" font-weight="900" fill="#111827">Resume Builders</text>
<text x="214" y="850" font-family="Inter, Arial, sans-serif" font-size="26" font-weight="700" fill="#0f766e">Generated for Guide Market</text>
</svg>