<svg xmlns="http://www.w3.org/2000/svg" width="1440" height="960" viewBox="0 0 1440 960" role="img" aria-labelledby="title desc">
<title id="title">Learning Languages illustration</title><desc id="desc">Generated Guide Market illustration for Learning Languages.</desc>
<defs><linearGradient id="g" x1="0" y1="0" x2="1" y2="1"><stop stop-color="#f8f5ff"/><stop offset="1" stop-color="#ffffff"/></linearGradient><filter id="shadow" x="-20%" y="-20%" width="140%" height="140%"><feDropShadow dx="0" dy="18" stdDeviation="20" flood-color="#0f172a" flood-opacity=".18"/></filter></defs>
<rect width="1440" height="960" fill="url(#g)"/><circle cx="1120" cy="190" r="210" fill="#06b6d4" opacity=".12"/><circle cx="250" cy="760" r="260" fill="#7c3aed" opacity=".10"/><circle cx="120" cy="120" r="6" fill="#f97316" opacity=".25"/><circle cx="182" cy="162" r="7" fill="#06b6d4" opacity=".25"/><circle cx="244" cy="204" r="8" fill="#f97316" opacity=".25"/><circle cx="306" cy="120" r="9" fill="#06b6d4" opacity=".25"/><circle cx="368" cy="162" r="6" fill="#f97316" opacity=".25"/><circle cx="430" cy="204" r="7" fill="#06b6d4" opacity=".25"/><circle cx="492" cy="120" r="8" fill="#f97316" opacity=".25"/><circle cx="554" cy="162" r="9" fill="#06b6d4" opacity=".25"/><circle cx="616" cy="204" r="6" fill="#f97316" opacity=".25"/><circle cx="678" cy="120" r="7" fill="#06b6d4" opacity=".25"/><circle cx="740" cy="162" r="8" fill="#f97316" opacity=".25"/><circle cx="802" cy="204" r="9" fill="#06b6d4" opacity=".25"/><circle cx="864" cy="120" r="6" fill="#f97316" opacity=".25"/><circle cx="926" cy="162" r="7" fill="#06b6d4" opacity=".25"/><circle cx="988" cy="204" r="8" fill="#f97316" opacity=".25"/><circle cx="1050" cy="120" r="9" fill="#06b6d4" opacity=".25"/><circle cx="1112" cy="162" r="6" fill="#f97316" opacity=".25"/><circle cx="1174" cy="204" r="7" fill="#06b6d4" opacity=".25"/>
<g filter="url(#shadow)"><rect x="130" y="150" width="1180" height="660" rx="54" fill="#fff" opacity=".86"/><rect x="170" y="190" width="1100" height="580" rx="38" fill="#f8f5ff" opacity=".9"/></g>
<g filter="url(#shadow)"><path d="M230 320 q0-90 110-90 h230 q110 0 110 90 v90 q0 90-110 90 H400 l-90 70 v-70 h-80 q-110 0-110-90 z" fill="#7c3aed" opacity=".95"/><path d="M770 260 q0-70 90-70 h170 q90 0 90 70 v80 q0 70-90 70 H880 l-70 55 v-55 h-40 q-90 0-90-70 z" fill="#06b6d4" opacity=".92"/></g>
<g><rect x="820" y="590" width="28" height="80" rx="10" fill="#7c3aed" opacity=".9"/><rect x="862" y="545" width="28" height="125" rx="10" fill="#06b6d4" opacity=".9"/><rect x="904" y="500" width="28" height="170" rx="10" fill="#f97316" opacity=".9"/><rect x="946" y="455" width="28" height="215" rx="10" fill="#7c3aed" opacity=".9"/><rect x="988" y="410" width="28" height="260" rx="10" fill="#06b6d4" opacity=".9"/></g>
<g fill="none" stroke="#22113d" stroke-width="10" stroke-linecap="round" opacity=".18"><path d="M235 705 C380 640 480 720 620 650 S850 510 1040 540"/><path d="M310 255 H575 M310 315 H650 M310 375 H515"/></g>
<g filter="url(#shadow)"><rect x="210" y="620" width="450" height="110" rx="28" fill="#fff"/><text x="245" y="668" font-family="Inter, Arial, sans-serif" font-size="34" font-weight="800" fill="#22113d">Languages</text><text x="245" y="707" font-family="Inter, Arial, sans-serif" font-size="24" fill="#22113d" opacity=".72">conversation practice</text></g>
<g><circle cx="1020" cy="260" r="54" fill="#f97316"/><path d="M998 260 h44 M1020 238 v44" stroke="#fff" stroke-width="12" stroke-linecap="round"/></g>
<text x="210" y="125" font-family="Inter, Arial, sans-serif" font-size="54" font-weight="900" fill="#22113d">Learning Languages</text>
<text x="214" y="850" font-family="Inter, Arial, sans-serif" font-size="26" font-weight="700" fill="#7c3aed">Generated for Guide Market</text>
</svg>