<svg xmlns="http://www.w3.org/2000/svg" viewBox="0 0 1200 700" role="img" aria-labelledby="title desc"><title id="title">Best AI Stocks to Watch in 2026</title><desc id="desc">Companies, valuation and portfolio roles</desc><defs><linearGradient id="g" x1="0" y1="0" x2="1" y2="1"><stop offset="0" stop-color="#f8fbff"/><stop offset="1" stop-color="#e7f4ed"/></linearGradient><filter id="s" x="-20%" y="-20%" width="140%" height="140%"><feDropShadow dx="0" dy="18" stdDeviation="18" flood-color="#102a43" flood-opacity=".14"/></filter></defs><rect width="1200" height="700" fill="url(#g)"/><circle cx="1000" cy="120" r="180" fill="#2563eb" opacity=".12"/><circle cx="170" cy="560" r="150" fill="#106b45" opacity=".09"/><rect x="95" y="95" width="1010" height="510" rx="44" fill="#fff" filter="url(#s)"/><text x="145" y="178" font-family="Inter,Arial,sans-serif" font-size="40" font-weight="900" fill="#0f172a">Guide Market</text><text x="145" y="245" font-family="Inter,Arial,sans-serif" font-size="72" font-weight="950" fill="#101828">Best AI Stocks to Watch in 2026</text><text x="145" y="304" font-family="Inter,Arial,sans-serif" font-size="30" font-weight="700" fill="#536174">Companies, valuation and portfolio roles</text><g transform="translate(145 370)"><rect x="18" y="24" width="180" height="180" rx="34" fill="#101828"/><circle cx="72" cy="92" r="16" fill="#60a5fa"/><circle cx="144" cy="92" r="16" fill="#34d399"/><path d="M66 142 C91 164 127 164 152 142" fill="none" stroke="#fff" stroke-width="12" stroke-linecap="round"/><rect x="255" y="25" width="330" height="140" rx="28" fill="#f7fafc" stroke="#d9e2ee"/><text x="280" y="78" font-family="Inter,Arial,sans-serif" font-size="28" font-weight="900" fill="#101828">AI infrastructure</text><text x="280" y="118" font-family="Inter,Arial,sans-serif" font-size="22" font-weight="700" fill="#536174">chips, cloud, software</text></g><g transform="translate(720 345)"><rect x="0" y="0" width="300" height="185" rx="28" fill="#f7fafc" stroke="#d9e2ee"/><path d="M48 128 L107 86 L161 111 L242 54" fill="none" stroke="#2563eb" stroke-width="16" stroke-linecap="round" stroke-linejoin="round"/><circle cx="48" cy="128" r="12" fill="#2563eb"/><circle cx="107" cy="86" r="12" fill="#2563eb"/><circle cx="161" cy="111" r="12" fill="#2563eb"/><circle cx="242" cy="54" r="12" fill="#2563eb"/><text x="32" y="160" font-family="Inter,Arial,sans-serif" font-size="20" font-weight="800" fill="#536174">research first</text></g></svg>