<svg xmlns="http://www.w3.org/2000/svg" viewBox="0 0 1200 700" role="img" aria-labelledby="title desc"><title id="title">Best Cryptocurrencies to Research in 2026</title><desc id="desc">Stocks, ETFs, crypto and portfolio rules</desc><defs><linearGradient id="g" x1="0" y1="0" x2="1" y2="1"><stop offset="0" stop-color="#f8fbff"/><stop offset="1" stop-color="#e7f4ed"/></linearGradient><filter id="s" x="-20%" y="-20%" width="140%" height="140%"><feDropShadow dx="0" dy="18" stdDeviation="18" flood-color="#102a43" flood-opacity=".14"/></filter></defs><rect width="1200" height="700" fill="url(#g)"/><circle cx="1000" cy="120" r="180" fill="#0f766e" opacity=".12"/><circle cx="170" cy="560" r="150" fill="#106b45" opacity=".09"/><rect x="95" y="95" width="1010" height="510" rx="44" fill="#fff" filter="url(#s)"/><text x="145" y="178" font-family="Inter,Arial,sans-serif" font-size="40" font-weight="900" fill="#0f172a">Guide Market</text><text x="145" y="245" font-family="Inter,Arial,sans-serif" font-size="72" font-weight="950" fill="#101828">Best Cryptocurrencies to Research in 2026</text><text x="145" y="304" font-family="Inter,Arial,sans-serif" font-size="30" font-weight="700" fill="#536174">Stocks, ETFs, crypto and portfolio rules</text><g transform="translate(145 370)"><circle cx="95" cy="95" r="86" fill="#f7931a"/><text x="95" y="121" text-anchor="middle" font-family="Inter,Arial,sans-serif" font-size="88" font-weight="950" fill="#fff">B</text><rect x="230" y="25" width="285" height="140" rx="28" fill="#edf7f1" stroke="#cfe5d9"/><text x="255" y="78" font-family="Inter,Arial,sans-serif" font-size="28" font-weight="900" fill="#106b45">Crypto watchlist</text><text x="255" y="118" font-family="Inter,Arial,sans-serif" font-size="22" font-weight="700" fill="#536174">Bitcoin, Ethereum, Solana</text></g><g transform="translate(720 345)"><rect x="0" y="0" width="300" height="185" rx="28" fill="#f7fafc" stroke="#d9e2ee"/><path d="M48 128 L107 86 L161 111 L242 54" fill="none" stroke="#0f766e" stroke-width="16" stroke-linecap="round" stroke-linejoin="round"/><circle cx="48" cy="128" r="12" fill="#0f766e"/><circle cx="107" cy="86" r="12" fill="#0f766e"/><circle cx="161" cy="111" r="12" fill="#0f766e"/><circle cx="242" cy="54" r="12" fill="#0f766e"/><text x="32" y="160" font-family="Inter,Arial,sans-serif" font-size="20" font-weight="800" fill="#536174">research first</text></g></svg>