<svg xmlns="http://www.w3.org/2000/svg" viewBox="0 0 1200 700" role="img" aria-labelledby="title desc"><title id="title">Bitcoin vs Ethereum in 2026: Which One Should You Research First?</title><desc id="desc">Bitcoin, Ethereum, ETFs and risk research</desc><defs><linearGradient id="g" x1="0" y1="0" x2="1" y2="1"><stop offset="0" stop-color="#f8fbff"/><stop offset="1" stop-color="#e7f4ed"/></linearGradient><filter id="s" x="-20%" y="-20%" width="140%" height="140%"><feDropShadow dx="0" dy="18" stdDeviation="18" flood-color="#102a43" flood-opacity=".14"/></filter></defs><rect width="1200" height="700" fill="url(#g)"/><circle cx="1000" cy="120" r="180" fill="#f7931a" opacity=".12"/><circle cx="170" cy="560" r="150" fill="#106b45" opacity=".09"/><rect x="95" y="95" width="1010" height="510" rx="44" fill="#fff" filter="url(#s)"/><text x="145" y="178" font-family="Inter,Arial,sans-serif" font-size="40" font-weight="900" fill="#0f172a">Guide Market</text><text x="145" y="245" font-family="Inter,Arial,sans-serif" font-size="72" font-weight="950" fill="#101828">Bitcoin vs Ethereum in 2026: Which One Should You Research First?</text><text x="145" y="304" font-family="Inter,Arial,sans-serif" font-size="30" font-weight="700" fill="#536174">Bitcoin, Ethereum, ETFs and risk research</text><g transform="translate(145 370)"><circle cx="82" cy="92" r="70" fill="#f7931a"/><text x="82" y="116" text-anchor="middle" font-family="Inter,Arial,sans-serif" font-size="70" font-weight="950" fill="#fff">B</text><circle cx="230" cy="92" r="70" fill="#627eea"/><text x="230" y="116" text-anchor="middle" font-family="Inter,Arial,sans-serif" font-size="70" font-weight="950" fill="#fff">E</text><path d="M330 92 H520" stroke="#101828" stroke-width="16" stroke-linecap="round"/><path d="M468 48 L520 92 L468 136" fill="none" stroke="#101828" stroke-width="16" stroke-linecap="round" stroke-linejoin="round"/></g><g transform="translate(720 345)"><rect x="0" y="0" width="300" height="185" rx="28" fill="#f7fafc" stroke="#d9e2ee"/><path d="M48 128 L107 86 L161 111 L242 54" fill="none" stroke="#f7931a" stroke-width="16" stroke-linecap="round" stroke-linejoin="round"/><circle cx="48" cy="128" r="12" fill="#f7931a"/><circle cx="107" cy="86" r="12" fill="#f7931a"/><circle cx="161" cy="111" r="12" fill="#f7931a"/><circle cx="242" cy="54" r="12" fill="#f7931a"/><text x="32" y="160" font-family="Inter,Arial,sans-serif" font-size="20" font-weight="800" fill="#536174">research first</text></g></svg>