<svg xmlns="http://www.w3.org/2000/svg" width="1600" height="1000" viewBox="0 0 1600 1000" role="img" aria-labelledby="title desc">
  <title id="title">AI Essay Writing</title>
  <desc id="desc">Structure, feedback, grammar and research</desc>
  <defs>
    <linearGradient id="bg" x1="0" y1="0" x2="1" y2="1">
      <stop offset="0" stop-color="#fff7ed"/>
      <stop offset="0.52" stop-color="#ffffff"/>
      <stop offset="1" stop-color="#fff7ed"/>
    </linearGradient>
    <linearGradient id="accent" x1="0" y1="0" x2="1" y2="1">
      <stop offset="0" stop-color="#c2410c"/>
      <stop offset="1" stop-color="#fb923c"/>
    </linearGradient>
    <filter id="shadow" x="-20%" y="-20%" width="140%" height="140%">
      <feDropShadow dx="0" dy="20" stdDeviation="24" flood-color="#0f172a" flood-opacity="0.15"/>
    </filter>
  </defs>
  <rect width="1600" height="1000" fill="url(#bg)"/>
  <circle cx="1310" cy="160" r="210" fill="#fb923c" opacity="0.16"/>
  <circle cx="170" cy="830" r="260" fill="#c2410c" opacity="0.11"/>
  <g filter="url(#shadow)">
    <rect x="120" y="118" width="1360" height="764" rx="44" fill="#fff" stroke="#d8e2ee" stroke-width="3"/>
    <rect x="120" y="118" width="1360" height="178" rx="44" fill="url(#accent)"/>
    <rect x="120" y="244" width="1360" height="52" fill="url(#accent)"/>
  </g>
  <g transform="translate(215 190)">
    <rect x="0" y="0" width="150" height="150" rx="34" fill="#fff" opacity="0.96"/>
    <path d="M43 98h64M43 75h84M43 52h52" stroke="#c2410c" stroke-width="16" stroke-linecap="round"/>
  </g>
  <text x="215" y="438" fill="#0f172a" font-family="Inter, Arial, sans-serif" font-size="82" font-weight="900" letter-spacing="-1">AI Essay Writing</text>
  <text x="218" y="525" fill="#475569" font-family="Inter, Arial, sans-serif" font-size="38" font-weight="700">Structure, feedback, grammar and research</text>
  <g transform="translate(215 650)">
    <rect x="0" y="0" width="360" height="76" rx="22" fill="#fff7ed" stroke="#d8e2ee"/>
    <text x="32" y="50" fill="#c2410c" font-family="Inter, Arial, sans-serif" font-size="28" font-weight="900">Guide Market</text>
    <rect x="410" y="0" width="240" height="76" rx="22" fill="#f8fafc" stroke="#d8e2ee"/>
    <text x="442" y="50" fill="#334155" font-family="Inter, Arial, sans-serif" font-size="28" font-weight="850">Reviewed guide</text>
  </g>
  <g transform="translate(1020 550)" opacity="0.95">
    <rect x="0" y="0" width="310" height="210" rx="28" fill="#f8fafc" stroke="#d8e2ee"/>
    <path d="M58 142l58-58 45 42 84-94" fill="none" stroke="#c2410c" stroke-width="18" stroke-linecap="round" stroke-linejoin="round"/>
    <circle cx="58" cy="142" r="18" fill="#fb923c"/>
    <circle cx="116" cy="84" r="18" fill="#fb923c"/>
    <circle cx="161" cy="126" r="18" fill="#fb923c"/>
    <circle cx="245" cy="32" r="18" fill="#fb923c"/>
  </g>
</svg>