<svg xmlns="http://www.w3.org/2000/svg" width="1440" height="960" viewBox="0 0 1440 960" role="img" aria-labelledby="title desc">
  <title id="title">Crypto investing 2026 illustration</title>
  <desc id="desc">Guide Market illustration for a crypto portfolio with Bitcoin, Ethereum, Solana, Chainlink, Avalanche and Sui.</desc>
  <defs>
    <linearGradient id="bg" x1="0" y1="0" x2="1" y2="1">
      <stop stop-color="#f8fff9"/>
      <stop offset="1" stop-color="#eef5ff"/>
    </linearGradient>
    <linearGradient id="coin" x1="0" y1="0" x2="1" y2="1">
      <stop stop-color="#ffd166"/>
      <stop offset="1" stop-color="#f59e0b"/>
    </linearGradient>
    <linearGradient id="green" x1="0" y1="0" x2="1" y2="1">
      <stop stop-color="#22c55e"/>
      <stop offset="1" stop-color="#106b45"/>
    </linearGradient>
    <filter id="shadow" x="-20%" y="-20%" width="140%" height="140%">
      <feDropShadow dx="0" dy="18" stdDeviation="22" flood-color="#0f172a" flood-opacity=".16"/>
    </filter>
  </defs>
  <rect width="1440" height="960" fill="url(#bg)"/>
  <circle cx="1160" cy="170" r="230" fill="#22c55e" opacity=".11"/>
  <circle cx="220" cy="780" r="270" fill="#1d4ed8" opacity=".08"/>
  <g filter="url(#shadow)">
    <rect x="130" y="150" width="1180" height="660" rx="54" fill="#fff" opacity=".9"/>
    <rect x="185" y="215" width="1030" height="460" rx="36" fill="#f4fbf7"/>
  </g>
  <g fill="none" stroke="#106b45" stroke-width="14" stroke-linecap="round" stroke-linejoin="round" opacity=".84">
    <path d="M260 625 C390 540 490 570 610 455 S820 315 1010 380 1140 275 1210 260"/>
    <path d="M1128 255 L1210 260 L1176 332"/>
  </g>
  <g filter="url(#shadow)">
    <circle cx="330" cy="405" r="98" fill="url(#coin)"/>
    <text x="330" y="438" text-anchor="middle" font-family="Inter, Arial, sans-serif" font-size="82" font-weight="900" fill="#fff">₿</text>
  </g>
  <g filter="url(#shadow)">
    <circle cx="540" cy="325" r="78" fill="#627eea"/>
    <path d="M540 260 L500 330 L540 354 L580 330 Z" fill="#fff" opacity=".9"/>
    <path d="M540 368 L500 342 L540 414 L580 342 Z" fill="#fff" opacity=".78"/>
  </g>
  <g filter="url(#shadow)">
    <circle cx="745" cy="445" r="86" fill="#111827"/>
    <path d="M690 426 C735 390 760 492 807 442" stroke="#a855f7" stroke-width="18" fill="none" stroke-linecap="round"/>
    <path d="M692 467 C740 430 766 532 812 484" stroke="#22d3ee" stroke-width="18" fill="none" stroke-linecap="round"/>
  </g>
  <g filter="url(#shadow)">
    <circle cx="965" cy="338" r="76" fill="#2a5ada"/>
    <path d="M925 338 H1005 M965 298 V378" stroke="#fff" stroke-width="18" stroke-linecap="round"/>
    <circle cx="965" cy="338" r="28" fill="#2a5ada" stroke="#fff" stroke-width="12"/>
  </g>
  <g filter="url(#shadow)">
    <circle cx="1085" cy="545" r="70" fill="#e84142"/>
    <path d="M1085 496 L1140 595 H1030 Z" fill="#fff"/>
  </g>
  <g filter="url(#shadow)">
    <circle cx="480" cy="600" r="66" fill="#6fbcf0"/>
    <path d="M442 590 C470 552 515 560 526 602 C510 630 466 636 442 590Z" fill="#fff"/>
  </g>
  <g filter="url(#shadow)">
    <rect x="210" y="705" width="560" height="92" rx="24" fill="#fff"/>
    <text x="245" y="747" font-family="Inter, Arial, sans-serif" font-size="30" font-weight="900" fill="#143f2d">Crypto portfolio 2026</text>
    <text x="245" y="781" font-family="Inter, Arial, sans-serif" font-size="22" fill="#536174">Bitcoin, Ethereum, Solana, Chainlink, Avalanche and Sui</text>
  </g>
  <text x="205" y="120" font-family="Inter, Arial, sans-serif" font-size="52" font-weight="950" fill="#143f2d">Mejores criptomonedas 2026</text>
  <text x="210" y="855" font-family="Inter, Arial, sans-serif" font-size="24" font-weight="800" fill="#106b45">Guide Market Finance</text>
</svg>
