<svg xmlns="http://www.w3.org/2000/svg" viewBox="0 0 1200 640" role="img" aria-labelledby="t d"><title id="t">Best AI Tools for Online Courses scorecard</title><desc id="d">Editorial visual for Guide Market article Best AI Tools for Online Courses</desc><defs><linearGradient id="bg" x1="0" y1="0" x2="1" y2="1"><stop stop-color="#fbfdff"/><stop offset="1" stop-color="#edf7f1"/></linearGradient><filter id="shadow" x="-20%" y="-20%" width="140%" height="140%"><feDropShadow dx="0" dy="18" stdDeviation="20" flood-color="#101828" flood-opacity=".12"/></filter></defs><rect width="1200" height="640" fill="url(#bg)"/><circle cx="1040" cy="92" r="172" fill="#7c3aed" opacity=".12"/><circle cx="120" cy="550" r="145" fill="#106b45" opacity=".08"/><rect x="86" y="70" width="1028" height="500" rx="38" fill="#fff" stroke="#d9e2ee" filter="url(#shadow)"/><text x="132" y="135" font-family="Inter,Arial,sans-serif" font-size="28" font-weight="900" fill="#106b45">Guide Market editorial visual</text><text x="132" y="195" font-family="Inter,Arial,sans-serif" font-size="48" font-weight="950" fill="#101828">Comparison scorecard</text><text x="132" y="245" font-family="Inter,Arial,sans-serif" font-size="24" font-weight="700" fill="#536174">Best AI Tools for Online Courses</text><g transform="translate(132 304)"><g transform="translate(0 0)"><rect width="260" height="145" rx="24" fill="#f8fafc" stroke="#d9e2ee"/><circle cx="44" cy="44" r="18" fill="#7c3aed"/><path d="M36 44 l7 8 l17 -20" fill="none" stroke="#fff" stroke-width="6" stroke-linecap="round" stroke-linejoin="round"/><text x="28" y="92" font-family="Inter,Arial,sans-serif" font-size="24" font-weight="900" fill="#101828">Use case</text><text x="28" y="123" font-family="Inter,Arial,sans-serif" font-size="17" font-weight="700" fill="#536174">Checked before recommending</text></g><g transform="translate(306 0)"><rect width="260" height="145" rx="24" fill="#f8fafc" stroke="#d9e2ee"/><circle cx="44" cy="44" r="18" fill="#7c3aed"/><path d="M36 44 l7 8 l17 -20" fill="none" stroke="#fff" stroke-width="6" stroke-linecap="round" stroke-linejoin="round"/><text x="28" y="92" font-family="Inter,Arial,sans-serif" font-size="24" font-weight="900" fill="#101828">Control</text><text x="28" y="123" font-family="Inter,Arial,sans-serif" font-size="17" font-weight="700" fill="#536174">Checked before recommending</text></g><g transform="translate(612 0)"><rect width="260" height="145" rx="24" fill="#f8fafc" stroke="#d9e2ee"/><circle cx="44" cy="44" r="18" fill="#7c3aed"/><path d="M36 44 l7 8 l17 -20" fill="none" stroke="#fff" stroke-width="6" stroke-linecap="round" stroke-linejoin="round"/><text x="28" y="92" font-family="Inter,Arial,sans-serif" font-size="24" font-weight="900" fill="#101828">Risk</text><text x="28" y="123" font-family="Inter,Arial,sans-serif" font-size="17" font-weight="700" fill="#536174">Checked before recommending</text></g></g><path d="M146 506 H1030" stroke="#d9e2ee" stroke-width="3"/><text x="132" y="535" font-family="Inter,Arial,sans-serif" font-size="20" font-weight="800" fill="#536174">Built to break up the guide with practical, reviewable decision points.</text></svg>