<svg xmlns="http://www.w3.org/2000/svg" width="1600" height="900" viewBox="0 0 1600 900" role="img" aria-labelledby="title desc">
  <title id="title">Best AI tools in 2026 overview</title>
  <desc id="desc">Editorial cover showing ChatGPT, Claude, Gemini, Perplexity and Microsoft Copilot as the five tools compared in the article.</desc>
  <defs>
    <linearGradient id="bg" x1="0" y1="0" x2="1" y2="1"><stop stop-color="#f8fafc"/><stop offset="1" stop-color="#e7f3ee"/></linearGradient>
    <filter id="shadow"><feDropShadow dx="0" dy="20" stdDeviation="24" flood-color="#111827" flood-opacity=".14"/></filter>
  </defs>
  <rect width="1600" height="900" fill="url(#bg)"/>
  <circle cx="1360" cy="120" r="260" fill="#106b45" opacity=".10"/>
  <circle cx="120" cy="760" r="240" fill="#6366f1" opacity=".10"/>
  <text x="110" y="150" font-family="Inter,Arial,sans-serif" font-size="48" font-weight="950" fill="#106b45">Guide Market</text>
  <text x="110" y="235" font-family="Inter,Arial,sans-serif" font-size="86" font-weight="950" fill="#111827">The 5 Best AI Tools</text>
  <text x="114" y="300" font-family="Inter,Arial,sans-serif" font-size="34" font-weight="750" fill="#5f6b7a">ChatGPT · Claude · Gemini · Perplexity · Copilot</text>
  <g transform="translate(110 395)" filter="url(#shadow)">
    <g><rect width="250" height="250" rx="42" fill="#fff"/><circle cx="125" cy="92" r="48" fill="#111827"/><path d="M78 150c28-34 66-34 94 0M88 113h74M104 76h42" fill="none" stroke="#fff" stroke-width="14" stroke-linecap="round"/><text x="52" y="210" font-family="Inter,Arial,sans-serif" font-size="30" font-weight="900" fill="#111827">ChatGPT</text></g>
    <g transform="translate(285 0)"><rect width="250" height="250" rx="42" fill="#fff"/><text x="73" y="128" font-family="Georgia,serif" font-size="94" font-weight="700" fill="#c15f3c">C</text><text x="58" y="210" font-family="Inter,Arial,sans-serif" font-size="30" font-weight="900" fill="#111827">Claude</text></g>
    <g transform="translate(570 0)"><rect width="250" height="250" rx="42" fill="#fff"/><path d="M125 44c18 53 31 66 84 84-53 18-66 31-84 84-18-53-31-66-84-84 53-18 66-31 84-84z" fill="#4285f4"/><path d="M125 44c18 53 31 66 84 84-53 18-66 31-84 84" fill="#a855f7" opacity=".65"/><text x="60" y="210" font-family="Inter,Arial,sans-serif" font-size="30" font-weight="900" fill="#111827">Gemini</text></g>
    <g transform="translate(855 0)"><rect width="250" height="250" rx="42" fill="#fff"/><rect x="72" y="54" width="106" height="106" rx="24" fill="#111827"/><path d="M98 78h54v54H98zM152 78l-54 54" fill="none" stroke="#fff" stroke-width="12" stroke-linecap="round"/><text x="42" y="210" font-family="Inter,Arial,sans-serif" font-size="30" font-weight="900" fill="#111827">Perplexity</text></g>
    <g transform="translate(1140 0)"><rect width="250" height="250" rx="42" fill="#fff"/><rect x="68" y="70" width="52" height="52" rx="12" fill="#f25022"/><rect x="130" y="70" width="52" height="52" rx="12" fill="#7fba00"/><rect x="68" y="132" width="52" height="52" rx="12" fill="#00a4ef"/><rect x="130" y="132" width="52" height="52" rx="12" fill="#ffb900"/><text x="62" y="210" font-family="Inter,Arial,sans-serif" font-size="30" font-weight="900" fill="#111827">Copilot</text></g>
  </g>
</svg>
