<svg width="1200" height="675" viewBox="0 0 1200 675" fill="none" xmlns="http://www.w3.org/2000/svg" role="img" aria-label="Best AI Tools for Creating TikTok Videos comparison graphic"><defs><linearGradient id="g" x1="0" y1="0" x2="700" y2="0"><stop stop-color="#6d28d9"/><stop offset="1" stop-color="#a78bfa"/></linearGradient><filter id="s"><feDropShadow dx="0" dy="18" stdDeviation="20" flood-opacity=".18"/></filter></defs><rect width="1200" height="675" fill="#f7fafc"/><path d="M0 0H1200V260C950 320 700 110 455 210C250 292 162 402 0 350V0Z" fill="url(#g)" opacity=".16"/><circle cx="1030" cy="130" r="96" fill="url(#g)" opacity=".2"/><rect x="48" y="52" width="1104" height="571" rx="36" fill="white" filter="url(#s)"/><text x="84" y="120" font-size="24" font-weight="900" fill="#6d28d9" letter-spacing="3">VIDEO GUIDE</text><text x="84" y="164" font-size="48" font-weight="900" fill="#102033">Best AI Tools for Creating TikTok Videos</text><g transform="translate(84 240)"><rect width="520" height="28" rx="14" fill="#e8edf5"/><rect width="360" height="28" rx="14" fill="url(#g)"/><text x="0" y="-10" font-size="24" font-weight="700" fill="#102033">CapCut</text><text x="548" y="22" font-size="21" font-weight="800" fill="#102033">91</text></g><g transform="translate(84 296)"><rect width="520" height="28" rx="14" fill="#e8edf5"/><rect width="398" height="28" rx="14" fill="url(#g)"/><text x="0" y="-10" font-size="24" font-weight="700" fill="#102033">Canva</text><text x="548" y="22" font-size="21" font-weight="800" fill="#102033">87</text></g><g transform="translate(84 352)"><rect width="520" height="28" rx="14" fill="#e8edf5"/><rect width="436" height="28" rx="14" fill="url(#g)"/><text x="0" y="-10" font-size="24" font-weight="700" fill="#102033">Runway</text><text x="548" y="22" font-size="21" font-weight="800" fill="#102033">83</text></g><g transform="translate(84 408)"><rect width="520" height="28" rx="14" fill="#e8edf5"/><rect width="474" height="28" rx="14" fill="url(#g)"/><text x="0" y="-10" font-size="24" font-weight="700" fill="#102033">Pika</text><text x="548" y="22" font-size="21" font-weight="800" fill="#102033">79</text></g><text x="84" y="580" font-size="22" font-weight="700" fill="#64748b">Guide Market visual comparison: use scores as directional editorial signals, not fixed rankings.</text></svg>