<svg width="900" height="520" viewBox="0 0 900 520" fill="none" xmlns="http://www.w3.org/2000/svg" role="img" aria-labelledby="title desc">
  <title id="title">Guide Market</title>
  <desc id="desc">Guide Market logo with an open book, upward arrow, and shopping bag handle.</desc>
  <defs>
    <linearGradient id="blue" x1="248" y1="164" x2="412" y2="284" gradientUnits="userSpaceOnUse">
      <stop stop-color="#10A7F3"/>
      <stop offset="1" stop-color="#063E9B"/>
    </linearGradient>
    <linearGradient id="green" x1="465" y1="166" x2="606" y2="308" gradientUnits="userSpaceOnUse">
      <stop stop-color="#66CF3A"/>
      <stop offset="1" stop-color="#0E742D"/>
    </linearGradient>
    <linearGradient id="orange" x1="421" y1="88" x2="520" y2="144" gradientUnits="userSpaceOnUse">
      <stop stop-color="#FFB21B"/>
      <stop offset="1" stop-color="#FF8800"/>
    </linearGradient>
    <filter id="softShadow" x="170" y="68" width="560" height="330" filterUnits="userSpaceOnUse" color-interpolation-filters="sRGB">
      <feDropShadow dx="0" dy="14" stdDeviation="10" flood-color="#000000" flood-opacity="0.28"/>
    </filter>
  </defs>

  <g filter="url(#softShadow)">
    <path d="M405 143C405 98 438 73 475 73C512 73 545 98 545 143" stroke="url(#orange)" stroke-width="18" stroke-linecap="round"/>
    <path d="M256 163C320 160 372 178 421 218V314C372 281 319 270 256 278V163Z" fill="url(#blue)"/>
    <path d="M256 163V298C322 291 372 303 421 338V314C372 281 319 270 256 278V163Z" fill="#053E9B"/>
    <path d="M256 298C319 291 372 303 421 338" stroke="#021B46" stroke-width="8" stroke-linecap="round"/>
    <path d="M421 218C470 178 522 160 586 163V278C523 270 470 281 421 314V218Z" fill="url(#green)"/>
    <path d="M421 314C470 281 523 270 586 278V163L610 170V302C546 296 488 307 421 338V314Z" fill="#0B6E2C"/>
    <path d="M421 218L498 268L560 196L526 202L549 182L594 174L586 226L566 246L571 211L504 292L421 238V218Z" fill="#0B1E12" opacity="0.38"/>
    <path d="M434 223L505 268L566 197L535 202L560 181L604 174L595 225L574 246L579 211L508 296L434 247V223Z" fill="#0B1110"/>
    <path d="M234 176H250V313H392C335 292 291 292 234 300V176Z" fill="#073073"/>
    <path d="M610 176H626V300C568 292 523 293 466 314H610V176Z" fill="#0D5A28"/>
  </g>

  <text x="142" y="416" font-family="Arial, Helvetica, sans-serif" font-size="86" font-weight="800" letter-spacing="-3">
    <tspan fill="#064AA8">Guide</tspan><tspan fill="#198537"> Market</tspan>
  </text>
  <text x="250" y="466" font-family="Arial, Helvetica, sans-serif" font-size="25" font-weight="800" letter-spacing="4" fill="#5D6670">
    SMART GUIDES • INSTANT KNOWLEDGE
  </text>
</svg>
