<svg width="1452" height="1088" viewBox="0 0 1452 1088" fill="none" xmlns="http://www.w3.org/2000/svg" role="img" aria-labelledby="title desc">
  <title id="title">Travel planning illustration</title>
  <desc id="desc">A colorful travel planning scene with a planner, map, airplane, passport, suitcase, globe, calendar, and camera.</desc>
  <defs>
    <linearGradient id="sky" x1="0" y1="0" x2="1452" y2="1088" gradientUnits="userSpaceOnUse">
      <stop stop-color="#36A9F6"/>
      <stop offset="1" stop-color="#7AD7FF"/>
    </linearGradient>
    <linearGradient id="mapBlue" x1="510" y1="690" x2="1020" y2="920" gradientUnits="userSpaceOnUse">
      <stop stop-color="#8BE7F6"/>
      <stop offset="1" stop-color="#49C2E8"/>
    </linearGradient>
    <filter id="shadow" x="-20%" y="-20%" width="140%" height="140%">
      <feDropShadow dx="0" dy="18" stdDeviation="18" flood-color="#075985" flood-opacity="0.24"/>
    </filter>
    <filter id="soft" x="-20%" y="-20%" width="140%" height="140%">
      <feDropShadow dx="0" dy="10" stdDeviation="10" flood-color="#0F172A" flood-opacity="0.18"/>
    </filter>
  </defs>

  <rect width="1452" height="1088" fill="url(#sky)"/>
  <circle cx="1170" cy="180" r="118" fill="#66D232"/>
  <circle cx="1170" cy="180" r="118" stroke="#F4B72A" stroke-width="16"/>
  <path d="M1094 138C1126 108 1182 98 1236 124C1194 128 1171 152 1160 188C1138 175 1117 159 1094 138Z" fill="#28A745"/>
  <path d="M1218 228C1189 257 1137 259 1103 232C1139 218 1166 202 1182 171C1199 187 1210 206 1218 228Z" fill="#1F9E3B"/>
  <path d="M1216 108C1237 137 1246 168 1238 202C1211 198 1188 186 1169 166C1182 139 1196 120 1216 108Z" fill="#8CEB39"/>
  <path d="M1265 165C1276 143 1300 132 1322 139C1311 158 1296 172 1276 181L1265 165Z" fill="#FF4E38"/>
  <path d="M1278 236C1260 202 1246 180 1246 157C1246 123 1272 98 1304 98C1336 98 1362 123 1362 157C1362 181 1347 204 1328 236C1316 256 1290 256 1278 236Z" fill="#FF4E38" filter="url(#soft)"/>
  <circle cx="1304" cy="154" r="28" fill="#54D6FF"/>

  <g filter="url(#soft)">
    <rect x="1028" y="542" width="286" height="260" rx="30" fill="#9A5B24"/>
    <rect x="1072" y="511" width="130" height="48" rx="22" stroke="#3B2A1F" stroke-width="18"/>
    <rect x="1072" y="606" width="80" height="70" rx="8" fill="#EAF9FF"/>
    <path d="M1088 660L1110 632L1131 660H1088Z" fill="#57C36E"/>
    <circle cx="1132" cy="625" r="8" fill="#F7C94A"/>
    <circle cx="1216" cy="674" r="36" fill="#7B61FF"/>
    <path d="M1200 671C1215 690 1232 692 1245 672" stroke="#FFD166" stroke-width="10" stroke-linecap="round"/>
    <path d="M1260 604L1278 641L1318 646L1288 672L1296 711L1260 692L1224 711L1232 672L1202 646L1242 641L1260 604Z" fill="#FFD24A"/>
  </g>

  <g filter="url(#soft)">
    <rect x="1088" y="786" width="205" height="242" rx="22" transform="rotate(8 1088 786)" fill="#0B4EA2"/>
    <text x="1128" y="845" transform="rotate(8 1128 845)" font-family="Arial, sans-serif" font-size="32" font-weight="900" fill="#F8C847">PASSPORT</text>
    <circle cx="1180" cy="914" r="44" transform="rotate(8 1180 914)" stroke="#F8C847" stroke-width="10"/>
    <path d="M1135 902C1165 920 1196 924 1230 912" stroke="#F8C847" stroke-width="7"/>
    <path d="M1145 940C1172 924 1201 920 1224 938" stroke="#F8C847" stroke-width="7"/>
    <path d="M1180 870C1160 903 1160 931 1180 958C1198 930 1198 902 1180 870Z" stroke="#F8C847" stroke-width="7"/>
  </g>

  <g filter="url(#soft)">
    <path d="M432 245C478 168 584 150 652 218C711 277 700 392 610 437C508 487 364 363 432 245Z" fill="#8B451D"/>
    <path d="M367 392C393 276 489 222 606 246C707 270 785 372 782 492C780 594 705 681 588 703C472 724 357 659 337 545C326 482 341 433 367 392Z" fill="#7A3B18"/>
    <circle cx="527" cy="451" r="152" fill="#F6B15E"/>
    <path d="M410 394C449 277 568 256 660 332C613 328 566 344 530 381C500 412 462 421 410 394Z" fill="#6F3516"/>
    <circle cx="466" cy="449" r="18" fill="#2A1B14"/>
    <path d="M613 424C632 401 665 400 687 423" stroke="#2A1B14" stroke-width="14" stroke-linecap="round"/>
    <circle cx="671" cy="458" r="34" fill="#2A1B14"/>
    <circle cx="682" cy="447" r="12" fill="white"/>
    <path d="M489 520C535 566 593 560 634 518" stroke="#9B2E1A" stroke-width="18" stroke-linecap="round"/>
    <path d="M386 589C402 528 456 496 533 500C609 504 666 536 696 594L706 812H358L386 589Z" fill="#7D4CE2"/>
    <path d="M716 610C762 626 814 680 836 742" stroke="#7D4CE2" stroke-width="76" stroke-linecap="round"/>
    <path d="M842 685C862 632 882 587 909 545" stroke="#F6B15E" stroke-width="40" stroke-linecap="round"/>
    <path d="M392 624C350 650 314 702 298 760" stroke="#7D4CE2" stroke-width="76" stroke-linecap="round"/>
  </g>

  <g filter="url(#soft)">
    <rect x="76" y="424" width="265" height="230" rx="26" transform="rotate(-12 76 424)" fill="#F9FAFB"/>
    <path d="M76 424C72 404 85 384 105 380L294 340C314 336 334 349 338 369L351 431L90 486L76 424Z" fill="#F24336"/>
    <rect x="122" y="382" width="22" height="78" rx="11" transform="rotate(-12 122 382)" fill="#6B7280"/>
    <rect x="252" y="354" width="22" height="78" rx="11" transform="rotate(-12 252 354)" fill="#6B7280"/>
    <g fill="#E5E7EB">
      <rect x="119" y="509" width="40" height="40" rx="8" transform="rotate(-12 119 509)"/>
      <rect x="174" y="497" width="40" height="40" rx="8" transform="rotate(-12 174 497)"/>
      <rect x="229" y="486" width="40" height="40" rx="8" transform="rotate(-12 229 486)"/>
      <rect x="133" y="574" width="40" height="40" rx="8" transform="rotate(-12 133 574)"/>
      <rect x="188" y="562" width="40" height="40" rx="8" transform="rotate(-12 188 562)"/>
      <rect x="243" y="551" width="40" height="40" rx="8" transform="rotate(-12 243 551)"/>
    </g>
    <path d="M211 551L240 574L293 500" stroke="#EF3F32" stroke-width="18" stroke-linecap="round" stroke-linejoin="round"/>
  </g>

  <g filter="url(#soft)">
    <rect x="62" y="715" width="456" height="300" rx="28" transform="rotate(-5 62 715)" fill="#F7E6C7"/>
    <text x="132" y="760" transform="rotate(-5 132 760)" font-family="Arial, sans-serif" font-size="36" font-weight="900" fill="#2B2B2B">TRAVEL PLAN</text>
    <g font-family="Arial, sans-serif" font-size="28" font-weight="800" fill="#2B2B2B">
      <text x="152" y="825" transform="rotate(-5 152 825)">Flights</text>
      <text x="152" y="880" transform="rotate(-5 152 880)">Hotel</text>
      <text x="152" y="935" transform="rotate(-5 152 935)">Activities</text>
      <text x="152" y="990" transform="rotate(-5 152 990)">Places</text>
    </g>
    <g stroke="#36A236" stroke-width="8" fill="none">
      <path d="M110 806L130 824L164 781"/>
      <path d="M115 861L135 879L169 836"/>
      <path d="M120 916L140 934L174 891"/>
      <path d="M125 971L145 989L179 946"/>
    </g>
    <text x="388" y="823" transform="rotate(-5 388 823)" font-family="Arial" font-size="32">✈</text>
    <text x="386" y="878" transform="rotate(-5 386 878)" font-family="Arial" font-size="32">▰</text>
    <text x="386" y="933" transform="rotate(-5 386 933)" font-family="Arial" font-size="32">📷</text>
    <text x="386" y="988" transform="rotate(-5 386 988)" font-family="Arial" font-size="32">📍</text>
  </g>

  <g filter="url(#soft)">
    <path d="M542 700L753 642L998 690L968 986L740 930L530 993L542 700Z" fill="#F8F3D7"/>
    <path d="M574 724L748 678L740 902L566 954L574 724Z" fill="url(#mapBlue)"/>
    <path d="M762 682L950 714L928 950L752 904L762 682Z" fill="#63D7E8"/>
    <path d="M597 780C638 750 670 752 702 788C672 814 645 841 601 835L597 780Z" fill="#62C653"/>
    <path d="M782 724C836 730 878 760 906 817C858 819 821 802 789 768L782 724Z" fill="#62C653"/>
    <path d="M807 870C856 842 895 846 930 886C892 918 850 921 806 898L807 870Z" fill="#74D35C"/>
    <path d="M621 834C688 852 747 880 821 850" stroke="#111827" stroke-width="8" stroke-dasharray="22 18" stroke-linecap="round"/>
    <path d="M916 739C875 739 843 771 843 813C843 855 879 891 916 952C953 891 989 855 989 813C989 771 957 739 916 739Z" fill="#FF4E38" filter="url(#soft)"/>
    <circle cx="916" cy="813" r="28" fill="#69D7F9"/>
  </g>

  <g filter="url(#soft)">
    <rect x="530" y="898" width="210" height="165" rx="16" transform="rotate(-8 530 898)" fill="white"/>
    <rect x="548" y="918" width="174" height="112" rx="10" transform="rotate(-8 548 918)" fill="#7DE0FF"/>
    <path d="M560 1007L620 938L660 986L694 946L724 1006L560 1007Z" fill="#4BBE5D"/>
    <circle cx="681" cy="940" r="14" fill="#FFD24A"/>
  </g>

  <g filter="url(#soft)">
    <rect x="40" y="910" width="170" height="112" rx="24" fill="#343A40"/>
    <rect x="82" y="880" width="76" height="44" rx="16" fill="#4B5563"/>
    <circle cx="125" cy="966" r="44" fill="#1F2937"/>
    <circle cx="125" cy="966" r="29" fill="#1D8ED8"/>
    <circle cx="125" cy="966" r="16" fill="#67C9FF"/>
  </g>

  <g filter="url(#soft)">
    <path d="M295 140L520 72C546 64 580 75 593 98C604 119 591 143 565 151L410 197L362 262C351 277 326 276 318 260L341 216L267 237C251 242 234 233 230 218C226 203 236 188 251 183L328 160L295 140Z" fill="#F9FAFB"/>
    <path d="M295 140L328 160L251 183C236 188 226 203 230 218C234 233 251 242 267 237L341 216L318 260C326 276 351 277 362 262L410 197L565 151C591 143 604 119 593 98C580 75 546 64 520 72L295 140Z" stroke="#DDE7F2" stroke-width="4"/>
    <circle cx="446" cy="132" r="9" fill="#1763C8"/>
    <circle cx="478" cy="122" r="9" fill="#1763C8"/>
    <circle cx="510" cy="113" r="9" fill="#1763C8"/>
  </g>

  <path d="M70 287C135 236 208 238 285 284" stroke="white" stroke-width="12" stroke-linecap="round" stroke-dasharray="26 28"/>
  <text x="830" y="370" font-family="Arial" font-size="92" font-weight="900" fill="#FFE15A">✦</text>
  <text x="1358" y="392" font-family="Arial" font-size="82" font-weight="900" fill="#FFE15A">✦</text>
  <text x="800" y="1040" font-family="Arial" font-size="104" font-weight="900" fill="#FFCE31">😍</text>

  <g filter="url(#soft)">
    <path d="M870 70C812 70 770 109 770 164C770 218 815 250 870 250H1018C1074 250 1119 215 1119 160C1119 105 1073 66 1016 70C986 38 921 34 870 70Z" fill="white"/>
    <circle cx="865" cy="293" r="23" fill="white"/>
    <circle cx="820" cy="337" r="14" fill="white"/>
    <path d="M900 174C918 142 947 129 986 132" stroke="#35A936" stroke-width="12" stroke-linecap="round"/>
    <path d="M945 130V196" stroke="#6E3F18" stroke-width="12" stroke-linecap="round"/>
    <path d="M916 200C943 160 982 158 1014 200H916Z" fill="#48C7F4"/>
    <circle cx="1030" cy="136" r="28" fill="#FFC928"/>
    <path d="M1030 88V62M1030 210V184M978 136H952M1108 136H1082M994 100L976 82M1066 100L1084 82M994 172L976 190M1066 172L1084 190" stroke="#FFC928" stroke-width="10" stroke-linecap="round"/>
  </g>

  <g filter="url(#soft)">
    <path d="M142 82C108 82 84 105 84 136C84 167 110 185 142 185H235C268 185 294 166 294 134C294 101 266 78 232 82C214 58 172 56 142 82Z" fill="white"/>
  </g>
</svg>
